<svg width="74" height="74" viewBox="0 0 74 74" fill="none" xmlns="http://www.w3.org/2000/svg">
<circle opacity="0.3" cx="37" cy="37" r="36.25" fill="#CC9268"/>
<circle cx="37" cy="37" r="28.3958" fill="white" stroke="#CC9268" stroke-width="1.20833"/>
<g clip-path="url(#clip0_4612_43376)">
<path d="M31.78 22.5C29.7228 22.5 28.3227 23.7257 27.0675 24.7656C25.8124 25.8055 24.7271 26.6574 23.1344 26.5056C22.9418 26.4852 22.7515 26.5623 22.6269 26.7118C22.5046 26.8613 22.4615 27.063 22.5182 27.2487C22.6043 27.5523 22.8331 28.0712 23.37 28.5538C23.8617 28.9978 24.6614 29.3354 25.69 29.3694C25.7603 29.4305 25.7988 29.5438 25.8713 29.5869C26.0729 29.7047 26.2972 29.7862 26.5238 29.8406C26.8727 29.9222 27.2465 29.8859 27.6113 29.8406C27.6747 29.8769 27.7382 29.9358 27.8107 29.9675C27.9693 30.0355 28.1505 30.1034 28.3544 30.1487C28.6784 30.219 29.0681 30.1578 29.46 30.0581C29.7093 30.1737 29.9539 30.3005 30.2032 30.2937C30.3572 30.2892 30.4909 30.2031 30.6382 30.1669C30.7741 30.4184 30.8693 30.6562 31.1094 30.9644C31.3903 31.3269 31.7211 31.7211 32.1969 31.9069C32.3464 32.5911 32.7384 33.153 33.23 33.5562C33.5382 33.81 33.8871 34.0094 34.245 34.1906C33.7353 34.6687 33.1757 35.4209 33.1757 36.4744C33.1757 37.4599 33.5132 38.2665 34.0094 38.885C34.202 39.1252 34.4218 39.3245 34.6438 39.5194C34.1385 40.0042 33.52 40.8176 33.52 41.8756C33.52 42.902 33.9392 43.6745 34.4807 44.1775C34.5328 44.2251 34.5917 44.2613 34.6438 44.3044C34.3832 44.685 34.1 45.2741 34.1 46.0444C34.1 46.8124 34.5758 47.4015 35.0969 47.8025C35.1694 47.8569 35.2396 47.9135 35.3144 47.9656C35.0448 48.3281 34.8771 48.6725 34.8069 49.0169C34.7118 49.4859 34.816 49.9299 34.9882 50.2494C35.3348 50.8883 35.9307 51.1556 35.9307 51.1556C36.087 51.2281 36.2637 51.2281 36.42 51.1556V51.5H37.58V51.1919C37.8338 51.3165 38.1396 51.2395 38.305 51.0106C38.5928 50.673 38.7921 50.3377 38.8669 49.9775C38.9326 49.6671 38.876 49.3567 38.7582 49.0894C38.8805 48.9104 39.0482 48.668 39.2113 48.3825C39.5398 47.8116 39.9 47.082 39.9 46.28C39.9 45.5459 39.7075 44.9433 39.4288 44.4494C39.9703 44.0302 40.77 43.1942 40.77 41.8756C40.77 41.094 40.3871 40.4324 39.9 39.9C39.7528 39.7391 39.5942 39.5919 39.4288 39.4469C40.0903 38.851 41.06 37.7001 41.06 36.0756C41.06 35.2917 40.736 34.612 40.2625 34.0819C40.5185 33.9323 40.7814 33.7579 41.0238 33.52C41.4135 33.1394 41.7125 32.582 41.8213 31.8706C42.2585 31.6735 42.5689 31.3088 42.8363 30.9644C43.0719 30.6608 43.1716 30.4342 43.3075 30.185C43.4503 30.219 43.5749 30.2892 43.7244 30.2937C43.9759 30.3005 44.2342 30.1759 44.4857 30.0581C44.8708 30.151 45.2696 30.219 45.5913 30.1487C45.7952 30.1034 45.9764 30.0355 46.135 29.9675C46.203 29.938 46.2574 29.8723 46.3163 29.8406C46.6969 29.9063 47.0979 29.9607 47.4582 29.8769C47.7935 29.7976 48.0993 29.6345 48.3463 29.3694C49.3545 29.3286 50.1429 28.991 50.63 28.5538C51.167 28.0712 51.3958 27.5523 51.4819 27.2487C51.5385 27.063 51.4955 26.8613 51.3732 26.7118C51.2485 26.5623 51.0582 26.4852 50.8657 26.5056C49.2729 26.6574 48.1877 25.8055 46.9325 24.7656C45.6774 23.7257 44.2772 22.5 42.22 22.5C41.5222 22.5 40.9468 22.8648 40.5525 23.3156C40.1583 23.7665 39.9 24.3034 39.9 24.8744C39.9 25.5223 40.011 25.9913 40.1357 26.3062C40.1402 26.3153 40.1493 26.3153 40.1538 26.3244C40.1153 26.3402 40.1266 26.347 40.0813 26.3606C39.857 26.4286 39.5511 26.4762 39.2657 26.5056C39.0278 26.5305 38.8171 26.5532 38.6313 26.56V26.4512C39.0527 26.0298 39.32 25.4566 39.32 24.82C39.32 23.5445 38.2756 22.5 37 22.5C35.7245 22.5 34.68 23.5445 34.68 24.82C34.68 25.4566 34.9474 26.0298 35.3688 26.4512V26.56C35.183 26.5532 34.9723 26.5305 34.7344 26.5056C34.4489 26.4762 34.1431 26.4286 33.9188 26.3606C33.8735 26.347 33.8848 26.3402 33.8463 26.3244C33.8508 26.3153 33.8599 26.3153 33.8644 26.3062C33.989 25.9913 34.1 25.5223 34.1 24.8744C34.1 24.3034 33.8418 23.7665 33.4475 23.3156C33.0533 22.8648 32.4778 22.5 31.78 22.5ZM31.78 23.66C32.0678 23.66 32.3487 23.8163 32.5775 24.0769C32.8064 24.3374 32.94 24.6909 32.94 24.8744C32.94 25.3864 32.8539 25.6787 32.7769 25.8712C32.7384 25.9687 32.7112 26.0412 32.6682 26.125C32.6251 26.2088 32.5413 26.2904 32.5413 26.56C32.5413 26.6914 32.5866 26.8205 32.6682 26.9225C32.9287 27.2397 33.2572 27.3666 33.5925 27.4662C33.9278 27.5659 34.2768 27.6316 34.6075 27.6656C34.9111 27.6973 35.183 27.7132 35.405 27.72L35.4413 29.0794C35.2011 28.9955 34.9338 28.9344 34.6257 28.9344C33.6446 28.9344 32.6319 29.5393 32.2694 30.5294C32.1901 30.4523 32.1108 30.3572 32.0338 30.2575C31.7483 29.8882 31.4923 29.4283 31.4357 29.2969C31.3722 29.1428 31.2476 29.025 31.0935 28.9684C30.9372 28.914 30.765 28.9276 30.62 29.0069C30.5135 29.068 30.321 29.1292 30.1669 29.1337C30.0128 29.1383 29.92 29.0998 29.895 29.0794C29.7251 28.9321 29.485 28.8959 29.2788 28.9887C29.136 29.0545 28.846 29.0635 28.59 29.0069C28.4609 28.9797 28.3476 28.9344 28.2638 28.8981C28.2207 28.88 28.189 28.8528 28.1732 28.8438C28.0214 28.7169 27.8175 28.6761 27.6294 28.735C27.455 28.7826 27.0811 28.7667 26.7957 28.6988C26.6529 28.6648 26.5283 28.624 26.4694 28.59C26.372 28.3702 26.1477 28.232 25.9075 28.2456C24.9945 28.2705 24.4825 28.0009 24.1494 27.7019C24.1018 27.6588 24.1177 27.6362 24.0769 27.5931C25.5881 27.3892 26.7571 26.5102 27.7925 25.6537C29.059 24.6048 30.1828 23.66 31.78 23.66ZM37 23.66C37.648 23.66 38.16 24.172 38.16 24.82C38.16 25.187 37.9856 25.4974 37.725 25.7081C37.6843 25.733 37.648 25.7648 37.6163 25.7987C37.4373 25.9098 37.2289 25.98 37 25.98C36.7576 25.98 36.5333 25.9052 36.3475 25.7806C36.3203 25.7534 36.2886 25.7285 36.2569 25.7081C36.0032 25.4974 35.84 25.1825 35.84 24.82C35.84 24.172 36.3521 23.66 37 23.66ZM42.22 23.66C43.8173 23.66 44.941 24.6048 46.2075 25.6537C47.2429 26.5102 48.412 27.3892 49.9232 27.5931C49.8824 27.6362 49.8982 27.6588 49.8507 27.7019C49.5176 28.0009 49.0056 28.2705 48.0925 28.2456C47.8433 28.2388 47.6168 28.3906 47.5307 28.6262C47.5669 28.5311 47.4582 28.6897 47.1863 28.7531C46.9144 28.8166 46.5632 28.8052 46.3525 28.735C46.1532 28.6625 45.9311 28.7055 45.7725 28.8438C45.7567 28.8528 45.725 28.88 45.6819 28.8981C45.5981 28.9344 45.4667 28.9797 45.3375 29.0069C45.0815 29.0635 44.8096 29.0545 44.6669 28.9887C44.4607 28.8959 44.2206 28.9321 44.0507 29.0794C44.0257 29.0998 43.9147 29.1383 43.7607 29.1337C43.6066 29.1292 43.4321 29.068 43.3257 29.0069C43.1784 28.9208 43.0017 28.9027 42.8408 28.9593C42.6822 29.0159 42.5531 29.1383 42.4919 29.2969C42.4353 29.4283 42.1974 29.8882 41.9119 30.2575C41.8462 30.3436 41.7828 30.4252 41.7125 30.4931C41.3387 29.5257 40.3418 28.9344 39.3744 28.9344C39.0708 28.9344 38.7967 28.9797 38.5588 29.0612L38.595 27.72C38.8171 27.7132 39.0889 27.6973 39.3925 27.6656C39.7233 27.6316 40.0722 27.5659 40.4075 27.4662C40.7428 27.3666 41.0714 27.2397 41.3319 26.9225C41.4135 26.8205 41.4588 26.6914 41.4588 26.56C41.4588 26.2904 41.375 26.2088 41.3319 26.125C41.2889 26.0412 41.2617 25.9687 41.2232 25.8712C41.1461 25.6787 41.06 25.3864 41.06 24.8744C41.06 24.6909 41.1937 24.3374 41.4225 24.0769C41.6514 23.8163 41.9323 23.66 42.22 23.66ZM36.5469 27.0856C36.6919 27.1151 36.846 27.14 37 27.14C37.1541 27.14 37.3082 27.1151 37.4532 27.0856L37.3082 32.3056C37.1043 32.2241 36.9026 32.1448 36.71 32.07L36.5469 27.0856ZM34.6257 30.0944C35.4073 30.0944 35.3688 30.4229 35.3688 30.3844C35.3688 30.4297 35.3982 30.3957 35.3688 30.4206C35.3393 30.4455 35.2374 30.4954 35.0969 30.5294C34.816 30.5973 34.39 30.586 34.2269 30.5656C34.0615 30.5452 33.8939 30.5973 33.7692 30.7084C33.6446 30.8194 33.5721 30.978 33.5744 31.1456C33.5744 31.5398 33.8032 31.8593 34.0457 32.07C34.2881 32.2807 34.5781 32.428 34.8975 32.5775C35.5364 32.8788 36.3226 33.1439 37.0907 33.4656C37.1541 33.5177 37.2289 33.554 37.3082 33.5744C37.7794 33.7783 38.2439 34.0003 38.6313 34.245C38.7128 34.4489 38.9032 34.5894 39.1207 34.6075C39.6236 35.038 39.9 35.473 39.9 36.0756C39.9 37.3376 38.9938 38.2982 38.5044 38.7219C38.4138 38.6562 38.3232 38.5859 38.2325 38.5225C38.1238 38.4477 38.0309 38.3775 37.9244 38.305C37.9743 38.262 38.0196 38.2257 38.0694 38.1781C38.518 37.7635 39.03 37.1518 39.03 36.3112C39.03 35.5092 38.4682 34.9088 37.8519 34.535C37.2357 34.1612 36.5084 33.9142 35.8038 33.6287C35.0992 33.3433 34.4218 33.0193 33.9732 32.65C33.5495 32.3011 33.3093 31.9477 33.2844 31.3994C33.2867 31.3699 33.2867 31.3382 33.2844 31.3088C33.2844 30.552 33.9868 30.0944 34.6257 30.0944ZM39.3744 30.0944C39.9793 30.0944 40.6318 30.5112 40.6975 31.2C40.6318 31.3495 40.6318 31.5217 40.6975 31.6712C40.6409 32.1674 40.4664 32.4484 40.2263 32.6862C40.002 32.906 39.6735 33.0873 39.32 33.2844C39.2 33.2051 39.0663 33.1394 38.9394 33.0669C39.1433 32.9445 39.3359 32.8131 39.5013 32.6681C39.7596 32.4438 39.9771 32.2037 40.1357 31.9612C40.2943 31.7188 40.4257 31.4809 40.4257 31.1456C40.4279 30.978 40.3554 30.8194 40.2308 30.7084C40.1062 30.5973 39.9385 30.5452 39.7732 30.5656C39.61 30.586 39.1841 30.5973 38.9032 30.5294C38.7627 30.4954 38.6607 30.4455 38.6313 30.4206C38.6018 30.3957 38.6313 30.4297 38.6313 30.3844C38.6313 30.4229 38.5928 30.0944 39.3744 30.0944ZM38.4863 31.5988C38.5339 31.6146 38.5837 31.6418 38.6313 31.6531C38.7174 31.6735 38.765 31.6577 38.8488 31.6712C38.808 31.712 38.7853 31.7392 38.74 31.78C38.6607 31.8502 38.5588 31.9159 38.4682 31.9794L38.4863 31.5988ZM35.4413 34.7344C35.6089 34.8023 35.7698 34.8499 35.9307 34.9156C35.9239 34.9224 35.9193 34.927 35.9125 34.9337C35.507 35.3053 35.0244 35.8762 35.0244 36.6556C35.0244 37.3398 35.4503 37.8428 35.9307 38.2687C36.0711 38.3934 36.2297 38.5112 36.3838 38.6313C36.454 38.7491 36.5628 38.8397 36.6919 38.885C36.6964 38.8873 36.7055 38.8827 36.71 38.885C36.7214 38.8918 36.735 38.8986 36.7463 38.9031C37.0136 39.0957 37.29 39.2951 37.5619 39.4831C37.7069 39.5828 37.8383 39.6893 37.9788 39.7913C38.0603 39.9204 38.1918 40.011 38.3413 40.045C38.6109 40.2534 38.8533 40.4664 39.0482 40.6794C39.4197 41.0872 39.61 41.4678 39.61 41.8756C39.61 42.7343 39.0572 43.2645 38.7038 43.525C38.5588 43.3891 38.4183 43.2735 38.2688 43.1625C38.5837 42.9087 38.9213 42.544 38.9213 41.9844C38.9213 41.2888 38.4682 40.7677 37.9788 40.3894C37.8814 40.3123 37.7771 40.2421 37.6707 40.1719C37.6639 40.1651 37.6593 40.1605 37.6525 40.1537C37.6457 40.1492 37.6412 40.1402 37.6344 40.1356C37.5506 40.0246 37.4282 39.9476 37.29 39.9181C36.9796 39.7278 36.6579 39.5534 36.3475 39.3562C36.2728 39.3087 36.2025 39.2611 36.13 39.2113C36.0507 39.0527 35.9035 38.9394 35.7313 38.9031C35.4277 38.6698 35.1354 38.4341 34.9157 38.16C34.5532 37.7069 34.3357 37.1994 34.3357 36.4744C34.3357 35.5998 35.1082 34.9723 35.4413 34.7344ZM37.1269 35.4594C37.17 35.482 37.2153 35.5092 37.2538 35.5319C37.7137 35.8105 37.87 36.0122 37.87 36.3112C37.87 36.6307 37.6072 37.0159 37.2719 37.3262C37.1496 37.4395 37.0521 37.5188 36.9457 37.5981C36.8709 37.5392 36.7757 37.4758 36.71 37.4169C36.3294 37.0793 36.1844 36.812 36.1844 36.6556C36.1844 36.3905 36.4019 36.0507 36.6919 35.7856C36.8641 35.627 37.0159 35.5296 37.1269 35.4594ZM35.6044 40.2625C35.6452 40.2897 35.6905 40.3101 35.7313 40.335C35.8944 40.4392 36.0462 40.5298 36.2025 40.625C36.1889 40.6386 36.1799 40.6477 36.1663 40.6612C36.0077 40.838 35.8332 41.0215 35.695 41.2412C35.5568 41.461 35.4413 41.7012 35.4413 42.0387C35.4413 42.322 35.5455 42.5893 35.695 42.7819C35.8446 42.9745 36.0213 43.1104 36.2025 43.235C36.3838 43.3596 36.5854 43.482 36.7825 43.5975C36.821 43.627 36.8641 43.6519 36.9094 43.67C37.0635 43.7606 37.213 43.8467 37.3625 43.9419C38.1215 44.429 38.74 44.9501 38.74 46.28C38.74 46.6946 38.4953 47.3154 38.2144 47.8025C38.126 47.9566 38.0581 48.063 37.9788 48.1831C37.8587 48.097 37.725 48.0223 37.5982 47.9475C38.0898 47.0209 38.2575 46.2687 38.0513 45.6275C37.8225 44.9138 37.2243 44.5173 36.6919 44.2137C36.1595 43.9102 35.6407 43.6609 35.2782 43.3256C34.9157 42.9903 34.68 42.6165 34.68 41.8756C34.68 41.2662 35.2351 40.6227 35.6044 40.2625ZM37.1813 41.2775C37.2017 41.2911 37.2357 41.3002 37.2538 41.3137C37.6253 41.6015 37.7613 41.7805 37.7613 41.9844C37.7613 42.0093 37.6435 42.1883 37.4169 42.3469C37.3285 42.408 37.256 42.4511 37.1813 42.4919C37.0816 42.433 36.9298 42.3423 36.855 42.2925C36.7282 42.2064 36.6511 42.1158 36.6194 42.075C36.5877 42.0342 36.6013 42.0455 36.6013 42.0387C36.6013 42.0863 36.6126 41.9844 36.6919 41.8575C36.7712 41.7306 36.8868 41.5834 37.0182 41.4406C37.0997 41.3523 37.1065 41.3523 37.1813 41.2775ZM35.6044 44.9387C35.7494 45.018 35.8899 45.1019 36.0213 45.1744C35.686 45.743 35.652 46.348 35.7675 46.8419C35.4141 46.5609 35.26 46.3366 35.26 46.0444C35.26 45.5052 35.4481 45.1562 35.6044 44.9387ZM36.9094 45.8994C36.9207 45.9243 36.9366 45.947 36.9457 45.9719C36.9887 46.1101 36.9955 46.3321 36.9094 46.6425C36.8188 46.4046 36.7712 46.178 36.9094 45.8994ZM36.3294 48.5637C36.3611 48.5796 36.3906 48.6023 36.42 48.6181V50.0862C36.386 50.0659 36.1278 49.9163 36.0032 49.6875C35.9375 49.5652 35.908 49.4519 35.9488 49.2525C35.9828 49.0871 36.0915 48.8583 36.3294 48.5637ZM37.58 49.3975C37.6253 49.4451 37.6684 49.4881 37.6888 49.5244C37.7341 49.6082 37.7454 49.6422 37.725 49.7419C37.7114 49.8098 37.6639 49.9209 37.58 50.05V49.3975Z" fill="#CC9268"/>
</g>
<defs>
<clipPath id="clip0_4612_43376">
<rect width="29" height="29" fill="white" transform="translate(22.5 22.5)"/>
</clipPath>
</defs>
</svg>
